<svg width="1920" height="1080" viewBox="0 0 1920 1080" fill="none" xmlns="http://www.w3.org/2000/svg">
<rect width="1920" height="1080" fill="white"/>
<path d="M616.5 641.5C616.5 744.501 940 1023 373.5 884.5C254.759 884.5 88 687.501 88 584.5C88 481.499 184.259 398 303 398C421.741 398 810 522 616.5 641.5Z" fill="url(#paint0_linear)"/>
<rect x="258" y="544" width="445" height="50" rx="18" fill="#DAD5D5"/>
<rect x="408" y="590" width="197" height="26" rx="13" fill="#FEF3F3"/>
<rect x="276" y="616" width="221" height="21" rx="6" fill="#FEF3F3"/>
<rect x="303" y="635" width="103" height="25" rx="11" fill="#FEF3F3"/>
<rect x="258" y="338" width="300" height="206" rx="38" fill="url(#paint1_linear)"/>
<rect x="315" y="117" width="300" height="206" rx="38" fill="#E4C0C0"/>
<rect x="408" y="238" width="300" height="206" rx="38" fill="url(#paint2_linear)"/>
<rect x="450" y="281" width="29" height="30" fill="#C4C4C4"/>
<path d="M384.606 580.2C382.923 580.2 381.473 579.825 380.256 579.075C379.056 578.308 378.131 577.283 377.481 576C376.831 574.717 376.506 573.292 376.506 571.725C376.506 570.158 376.84 568.733 377.506 567.45C378.173 566.167 379.115 565.15 380.331 564.4C381.565 563.633 383.006 563.25 384.656 563.25C386.44 563.25 387.981 563.692 389.281 564.575C390.598 565.442 391.565 566.567 392.181 567.95H390.131C389.631 567.067 388.931 566.367 388.031 565.85C387.148 565.333 386.073 565.075 384.806 565.075C383.473 565.075 382.323 565.375 381.356 565.975C380.39 566.558 379.648 567.35 379.131 568.35C378.631 569.35 378.381 570.475 378.381 571.725C378.381 572.958 378.631 574.083 379.131 575.1C379.631 576.1 380.356 576.9 381.306 577.5C382.273 578.083 383.423 578.375 384.756 578.375C385.756 578.375 386.698 578.158 387.581 577.725C388.481 577.292 389.206 576.667 389.756 575.85C390.323 575.033 390.606 574.05 390.606 572.9H384.556V571.2H392.331V580H390.606V577.075C390.256 577.608 389.806 578.117 389.256 578.6C388.706 579.067 388.04 579.45 387.256 579.75C386.49 580.05 385.606 580.2 384.606 580.2ZM395.623 580V563.45H397.498V580H395.623ZM401.555 580V563.45H413.505V565.25H403.43V571H412.405V572.825H403.43V580H401.555ZM420.23 580V565.225H414.455V563.45H427.88V565.225H422.105V580H420.23ZM436.191 580.2C434.558 580.2 433.233 579.983 432.216 579.55C431.2 579.1 430.433 578.483 429.916 577.7C429.416 576.917 429.125 576.033 429.041 575.05H430.991C431.041 575.85 431.308 576.5 431.791 577C432.275 577.483 432.908 577.842 433.691 578.075C434.491 578.308 435.366 578.425 436.316 578.425C437.716 578.425 438.825 578.183 439.641 577.7C440.458 577.2 440.866 576.467 440.866 575.5C440.866 574.917 440.658 574.45 440.241 574.1C439.841 573.733 439.3 573.433 438.616 573.2C437.95 572.967 437.216 572.758 436.416 572.575C435.616 572.375 434.808 572.167 433.991 571.95C433.191 571.733 432.45 571.458 431.766 571.125C431.1 570.792 430.558 570.367 430.141 569.85C429.741 569.317 429.541 568.642 429.541 567.825C429.541 566.475 430.058 565.375 431.091 564.525C432.141 563.675 433.7 563.25 435.766 563.25C437.233 563.25 438.441 563.475 439.391 563.925C440.341 564.358 441.05 564.933 441.516 565.65C442 566.367 442.266 567.142 442.316 567.975H440.391C440.291 567.142 439.875 566.442 439.141 565.875C438.408 565.292 437.283 565 435.766 565C434.833 565 434.075 565.092 433.491 565.275C432.908 565.458 432.458 565.7 432.141 566C431.841 566.283 431.633 566.583 431.516 566.9C431.416 567.217 431.366 567.517 431.366 567.8C431.366 568.35 431.566 568.8 431.966 569.15C432.383 569.483 432.925 569.767 433.591 570C434.275 570.217 435.025 570.417 435.841 570.6C436.658 570.783 437.466 570.992 438.266 571.225C439.083 571.442 439.825 571.725 440.491 572.075C441.175 572.408 441.716 572.842 442.116 573.375C442.533 573.908 442.741 574.592 442.741 575.425C442.741 576.958 442.158 578.142 440.991 578.975C439.825 579.792 438.225 580.2 436.191 580.2ZM450.969 580V563.45H453.144L459.069 571.3L464.894 563.45H467.069V580H465.194V566.3L459.069 574.175L452.844 566.3V580H450.969ZM469.161 580L476.186 563.45H478.536L485.561 580H483.486L481.461 575.2H473.261L471.236 580H469.161ZM473.986 573.475H480.736L477.361 565.4L473.986 573.475ZM487.664 580V563.45H494.639C495.622 563.45 496.564 563.642 497.464 564.025C498.38 564.392 499.197 564.933 499.914 565.65C500.63 566.367 501.197 567.233 501.614 568.25C502.03 569.267 502.239 570.425 502.239 571.725C502.239 573.025 502.03 574.183 501.614 575.2C501.197 576.217 500.63 577.083 499.914 577.8C499.197 578.517 498.38 579.067 497.464 579.45C496.564 579.817 495.622 580 494.639 580H487.664ZM489.539 578.225H494.564C495.747 578.225 496.772 577.925 497.639 577.325C498.505 576.725 499.172 575.933 499.639 574.95C500.122 573.967 500.364 572.892 500.364 571.725C500.364 570.542 500.122 569.458 499.639 568.475C499.172 567.492 498.505 566.708 497.639 566.125C496.772 565.525 495.747 565.225 494.564 565.225H489.539V578.225ZM505.242 580V563.45H517.417V565.25H507.117V570.8H516.317V572.625H507.117V578.2H517.417V580H505.242ZM525.774 580V563.45H537.949V565.25H527.649V570.8H536.849V572.625H527.649V578.2H537.949V580H525.774ZM539.034 580L546.059 563.45H548.409L555.434 580H553.359L551.334 575.2H543.134L541.109 580H539.034ZM543.859 573.475H550.609L547.234 565.4L543.859 573.475ZM563.462 580.2C561.828 580.2 560.503 579.983 559.487 579.55C558.47 579.1 557.703 578.483 557.187 577.7C556.687 576.917 556.395 576.033 556.312 575.05H558.262C558.312 575.85 558.578 576.5 559.062 577C559.545 577.483 560.178 577.842 560.962 578.075C561.762 578.308 562.637 578.425 563.587 578.425C564.987 578.425 566.095 578.183 566.912 577.7C567.728 577.2 568.137 576.467 568.137 575.5C568.137 574.917 567.928 574.45 567.512 574.1C567.112 573.733 566.57 573.433 565.887 573.2C565.22 572.967 564.487 572.758 563.687 572.575C562.887 572.375 562.078 572.167 561.262 571.95C560.462 571.733 559.72 571.458 559.037 571.125C558.37 570.792 557.828 570.367 557.412 569.85C557.012 569.317 556.812 568.642 556.812 567.825C556.812 566.475 557.328 565.375 558.362 564.525C559.412 563.675 560.97 563.25 563.037 563.25C564.503 563.25 565.712 563.475 566.662 563.925C567.612 564.358 568.32 564.933 568.787 565.65C569.27 566.367 569.537 567.142 569.587 567.975H567.662C567.562 567.142 567.145 566.442 566.412 565.875C565.678 565.292 564.553 565 563.037 565C562.103 565 561.345 565.092 560.762 565.275C560.178 565.458 559.728 565.7 559.412 566C559.112 566.283 558.903 566.583 558.787 566.9C558.687 567.217 558.637 567.517 558.637 567.8C558.637 568.35 558.837 568.8 559.237 569.15C559.653 569.483 560.195 569.767 560.862 570C561.545 570.217 562.295 570.417 563.112 570.6C563.928 570.783 564.737 570.992 565.537 571.225C566.353 571.442 567.095 571.725 567.762 572.075C568.445 572.408 568.987 572.842 569.387 573.375C569.803 573.908 570.012 574.592 570.012 575.425C570.012 576.958 569.428 578.142 568.262 578.975C567.095 579.792 565.495 580.2 563.462 580.2ZM577.6 580V573.45L570.65 563.45H572.925L578.525 571.5L584.125 563.45H586.4L579.475 573.45V580H577.6Z" fill="#3C3535"/>
<path d="M539.89 364.24C537.87 364.24 536.13 363.79 534.67 362.89C533.23 361.97 532.12 360.74 531.34 359.2C530.56 357.66 530.17 355.95 530.17 354.07C530.17 352.19 530.57 350.48 531.37 348.94C532.17 347.4 533.3 346.18 534.76 345.28C536.24 344.36 537.97 343.9 539.95 343.9C542.09 343.9 543.94 344.43 545.5 345.49C547.08 346.53 548.24 347.88 548.98 349.54H546.52C545.92 348.48 545.08 347.64 544 347.02C542.94 346.4 541.65 346.09 540.13 346.09C538.53 346.09 537.15 346.45 535.99 347.17C534.83 347.87 533.94 348.82 533.32 350.02C532.72 351.22 532.42 352.57 532.42 354.07C532.42 355.55 532.72 356.9 533.32 358.12C533.92 359.32 534.79 360.28 535.93 361C537.09 361.7 538.47 362.05 540.07 362.05C541.27 362.05 542.4 361.79 543.46 361.27C544.54 360.75 545.41 360 546.07 359.02C546.75 358.04 547.09 356.86 547.09 355.48H539.83V353.44H549.16V364H547.09V360.49C546.67 361.13 546.13 361.74 545.47 362.32C544.81 362.88 544.01 363.34 543.07 363.7C542.15 364.06 541.09 364.24 539.89 364.24ZM553.11 364V344.14H555.36V364H553.11ZM560.229 364V344.14H574.569V346.3H562.479V353.2H573.249V355.39H562.479V364H560.229ZM582.639 364V346.27H575.709V344.14H591.819V346.27H584.889V364H582.639ZM590.584 364L599.014 344.14H601.834L610.264 364H607.774L605.344 358.24H595.504L593.074 364H590.584ZM596.374 356.17H604.474L600.424 346.48L596.374 356.17ZM619.897 364.24C617.937 364.24 616.347 363.98 615.127 363.46C613.907 362.92 612.987 362.18 612.367 361.24C611.767 360.3 611.417 359.24 611.317 358.06H613.657C613.717 359.02 614.037 359.8 614.617 360.4C615.197 360.98 615.957 361.41 616.897 361.69C617.857 361.97 618.907 362.11 620.047 362.11C621.727 362.11 623.057 361.82 624.037 361.24C625.017 360.64 625.507 359.76 625.507 358.6C625.507 357.9 625.257 357.34 624.757 356.92C624.277 356.48 623.627 356.12 622.807 355.84C622.007 355.56 621.127 355.31 620.167 355.09C619.207 354.85 618.237 354.6 617.257 354.34C616.297 354.08 615.407 353.75 614.587 353.35C613.787 352.95 613.137 352.44 612.637 351.82C612.157 351.18 611.917 350.37 611.917 349.39C611.917 347.77 612.537 346.45 613.777 345.43C615.037 344.41 616.907 343.9 619.387 343.9C621.147 343.9 622.597 344.17 623.737 344.71C624.877 345.23 625.727 345.92 626.287 346.78C626.867 347.64 627.187 348.57 627.247 349.57H624.937C624.817 348.57 624.317 347.73 623.437 347.05C622.557 346.35 621.207 346 619.387 346C618.267 346 617.357 346.11 616.657 346.33C615.957 346.55 615.417 346.84 615.037 347.2C614.677 347.54 614.427 347.9 614.287 348.28C614.167 348.66 614.107 349.02 614.107 349.36C614.107 350.02 614.347 350.56 614.827 350.98C615.327 351.38 615.977 351.72 616.777 352C617.597 352.26 618.497 352.5 619.477 352.72C620.457 352.94 621.427 353.19 622.387 353.47C623.367 353.73 624.257 354.07 625.057 354.49C625.877 354.89 626.527 355.41 627.007 356.05C627.507 356.69 627.757 357.51 627.757 358.51C627.757 360.35 627.057 361.77 625.657 362.77C624.257 363.75 622.337 364.24 619.897 364.24ZM636.864 364V356.14L628.524 344.14H631.254L637.974 353.8L644.694 344.14H647.424L639.114 356.14V364H636.864Z" fill="white"/>
<defs>
<linearGradient id="paint0_linear" x1="398.23" y1="398" x2="131.5" y2="867" gradientUnits="userSpaceOnUse">
<stop stop-color="#48C8B8"/>
<stop offset="0.503636" stop-color="#3AAFBF" stop-opacity="0.677083"/>
<stop offset="1" stop-color="#67B0A8" stop-opacity="0"/>
</linearGradient>
<linearGradient id="paint1_linear" x1="408" y1="338" x2="558" y2="544" gradientUnits="userSpaceOnUse">
<stop stop-color="#8B6C6C"/>
<stop offset="0.291667" stop-color="#665D5D" stop-opacity="0.708333"/>
<stop offset="1" stop-color="#8B8787" stop-opacity="0"/>
</linearGradient>
<linearGradient id="paint2_linear" x1="697.5" y1="291.5" x2="408" y2="444" gradientUnits="userSpaceOnUse">
<stop stop-color="#FCE1E1"/>
<stop offset="0.00305774" stop-color="#171515"/>
<stop offset="0.984596" stop-color="#171515"/>
<stop offset="0.9999" stop-color="#070707" stop-opacity="0.171233"/>
<stop offset="1" stop-color="#0B0A0A" stop-opacity="0"/>
</linearGradient>
</defs>
</svg>
