<svg width="1920" height="1080" viewBox="0 0 1920 1080" fill="none" xmlns="http://www.w3.org/2000/svg">
<g clip-path="url(#clip0)">
<rect width="1920" height="1080" fill="white"/>
<rect width="1920" height="1080" fill="#E3EDEA"/>
<rect x="337" y="117" width="300" height="206" rx="38" fill="#E4C0C0"/>
<rect x="376" y="222" width="355" height="239" rx="26" fill="url(#paint0_diamond)"/>
<path d="M698.584 672.555C698.584 785.309 1058.86 1090.18 427.958 938.563C295.717 938.563 110 722.912 110 610.158C110 497.405 217.202 406 349.443 406C481.684 406 914.083 541.741 698.584 672.555Z" fill="url(#paint1_linear)"/>
<path d="M1455.34 190.648C1455.34 343.202 1008.61 766.054 1788.59 560.922C1946.93 488.348 2183 258.78 2183 106.225C2183 -46.3299 2050.47 -170 1886.98 -170C1723.49 -170 1188.93 13.6562 1455.34 190.648Z" fill="url(#paint2_linear)"/>
<rect x="290" y="544" width="445" height="50" rx="18" fill="#DAD5D5"/>
<rect x="408" y="590" width="197" height="26" rx="13" fill="#FEF3F3"/>
<rect x="276" y="616" width="221" height="21" rx="6" fill="#FEF3F3"/>
<rect x="303" y="635" width="103" height="25" rx="11" fill="#FEF3F3"/>
<rect x="258" y="338" width="300" height="206" rx="38" fill="url(#paint3_linear)"/>
<rect x="447" y="238" width="300" height="206" rx="38" fill="url(#paint4_linear)"/>
<rect x="482" y="281" width="29" height="30" fill="#C4C4C4"/>
<path d="M408.606 580.2C406.923 580.2 405.473 579.825 404.256 579.075C403.056 578.308 402.131 577.283 401.481 576C400.831 574.717 400.506 573.292 400.506 571.725C400.506 570.158 400.84 568.733 401.506 567.45C402.173 566.167 403.115 565.15 404.331 564.4C405.565 563.633 407.006 563.25 408.656 563.25C410.44 563.25 411.981 563.692 413.281 564.575C414.598 565.442 415.565 566.567 416.181 567.95H414.131C413.631 567.067 412.931 566.367 412.031 565.85C411.148 565.333 410.073 565.075 408.806 565.075C407.473 565.075 406.323 565.375 405.356 565.975C404.39 566.558 403.648 567.35 403.131 568.35C402.631 569.35 402.381 570.475 402.381 571.725C402.381 572.958 402.631 574.083 403.131 575.1C403.631 576.1 404.356 576.9 405.306 577.5C406.273 578.083 407.423 578.375 408.756 578.375C409.756 578.375 410.698 578.158 411.581 577.725C412.481 577.292 413.206 576.667 413.756 575.85C414.323 575.033 414.606 574.05 414.606 572.9H408.556V571.2H416.331V580H414.606V577.075C414.256 577.608 413.806 578.117 413.256 578.6C412.706 579.067 412.04 579.45 411.256 579.75C410.49 580.05 409.606 580.2 408.606 580.2ZM419.623 580V563.45H421.498V580H419.623ZM425.555 580V563.45H437.505V565.25H427.43V571H436.405V572.825H427.43V580H425.555ZM444.23 580V565.225H438.455V563.45H451.88V565.225H446.105V580H444.23ZM460.191 580.2C458.558 580.2 457.233 579.983 456.216 579.55C455.2 579.1 454.433 578.483 453.916 577.7C453.416 576.917 453.125 576.033 453.041 575.05H454.991C455.041 575.85 455.308 576.5 455.791 577C456.275 577.483 456.908 577.842 457.691 578.075C458.491 578.308 459.366 578.425 460.316 578.425C461.716 578.425 462.825 578.183 463.641 577.7C464.458 577.2 464.866 576.467 464.866 575.5C464.866 574.917 464.658 574.45 464.241 574.1C463.841 573.733 463.3 573.433 462.616 573.2C461.95 572.967 461.216 572.758 460.416 572.575C459.616 572.375 458.808 572.167 457.991 571.95C457.191 571.733 456.45 571.458 455.766 571.125C455.1 570.792 454.558 570.367 454.141 569.85C453.741 569.317 453.541 568.642 453.541 567.825C453.541 566.475 454.058 565.375 455.091 564.525C456.141 563.675 457.7 563.25 459.766 563.25C461.233 563.25 462.441 563.475 463.391 563.925C464.341 564.358 465.05 564.933 465.516 565.65C466 566.367 466.266 567.142 466.316 567.975H464.391C464.291 567.142 463.875 566.442 463.141 565.875C462.408 565.292 461.283 565 459.766 565C458.833 565 458.075 565.092 457.491 565.275C456.908 565.458 456.458 565.7 456.141 566C455.841 566.283 455.633 566.583 455.516 566.9C455.416 567.217 455.366 567.517 455.366 567.8C455.366 568.35 455.566 568.8 455.966 569.15C456.383 569.483 456.925 569.767 457.591 570C458.275 570.217 459.025 570.417 459.841 570.6C460.658 570.783 461.466 570.992 462.266 571.225C463.083 571.442 463.825 571.725 464.491 572.075C465.175 572.408 465.716 572.842 466.116 573.375C466.533 573.908 466.741 574.592 466.741 575.425C466.741 576.958 466.158 578.142 464.991 578.975C463.825 579.792 462.225 580.2 460.191 580.2ZM474.969 580V563.45H477.144L483.069 571.3L488.894 563.45H491.069V580H489.194V566.3L483.069 574.175L476.844 566.3V580H474.969ZM493.161 580L500.186 563.45H502.536L509.561 580H507.486L505.461 575.2H497.261L495.236 580H493.161ZM497.986 573.475H504.736L501.361 565.4L497.986 573.475ZM511.664 580V563.45H518.639C519.622 563.45 520.564 563.642 521.464 564.025C522.38 564.392 523.197 564.933 523.914 565.65C524.63 566.367 525.197 567.233 525.614 568.25C526.03 569.267 526.239 570.425 526.239 571.725C526.239 573.025 526.03 574.183 525.614 575.2C525.197 576.217 524.63 577.083 523.914 577.8C523.197 578.517 522.38 579.067 521.464 579.45C520.564 579.817 519.622 580 518.639 580H511.664ZM513.539 578.225H518.564C519.747 578.225 520.772 577.925 521.639 577.325C522.505 576.725 523.172 575.933 523.639 574.95C524.122 573.967 524.364 572.892 524.364 571.725C524.364 570.542 524.122 569.458 523.639 568.475C523.172 567.492 522.505 566.708 521.639 566.125C520.772 565.525 519.747 565.225 518.564 565.225H513.539V578.225ZM529.242 580V563.45H541.417V565.25H531.117V570.8H540.317V572.625H531.117V578.2H541.417V580H529.242ZM549.774 580V563.45H561.949V565.25H551.649V570.8H560.849V572.625H551.649V578.2H561.949V580H549.774ZM563.034 580L570.059 563.45H572.409L579.434 580H577.359L575.334 575.2H567.134L565.109 580H563.034ZM567.859 573.475H574.609L571.234 565.4L567.859 573.475ZM587.462 580.2C585.828 580.2 584.503 579.983 583.487 579.55C582.47 579.1 581.703 578.483 581.187 577.7C580.687 576.917 580.395 576.033 580.312 575.05H582.262C582.312 575.85 582.578 576.5 583.062 577C583.545 577.483 584.178 577.842 584.962 578.075C585.762 578.308 586.637 578.425 587.587 578.425C588.987 578.425 590.095 578.183 590.912 577.7C591.728 577.2 592.137 576.467 592.137 575.5C592.137 574.917 591.928 574.45 591.512 574.1C591.112 573.733 590.57 573.433 589.887 573.2C589.22 572.967 588.487 572.758 587.687 572.575C586.887 572.375 586.078 572.167 585.262 571.95C584.462 571.733 583.72 571.458 583.037 571.125C582.37 570.792 581.828 570.367 581.412 569.85C581.012 569.317 580.812 568.642 580.812 567.825C580.812 566.475 581.328 565.375 582.362 564.525C583.412 563.675 584.97 563.25 587.037 563.25C588.503 563.25 589.712 563.475 590.662 563.925C591.612 564.358 592.32 564.933 592.787 565.65C593.27 566.367 593.537 567.142 593.587 567.975H591.662C591.562 567.142 591.145 566.442 590.412 565.875C589.678 565.292 588.553 565 587.037 565C586.103 565 585.345 565.092 584.762 565.275C584.178 565.458 583.728 565.7 583.412 566C583.112 566.283 582.903 566.583 582.787 566.9C582.687 567.217 582.637 567.517 582.637 567.8C582.637 568.35 582.837 568.8 583.237 569.15C583.653 569.483 584.195 569.767 584.862 570C585.545 570.217 586.295 570.417 587.112 570.6C587.928 570.783 588.737 570.992 589.537 571.225C590.353 571.442 591.095 571.725 591.762 572.075C592.445 572.408 592.987 572.842 593.387 573.375C593.803 573.908 594.012 574.592 594.012 575.425C594.012 576.958 593.428 578.142 592.262 578.975C591.095 579.792 589.495 580.2 587.462 580.2ZM601.6 580V573.45L594.65 563.45H596.925L602.525 571.5L608.125 563.45H610.4L603.475 573.45V580H601.6Z" fill="#3C3535"/>
<path d="M595.89 364.24C593.87 364.24 592.13 363.79 590.67 362.89C589.23 361.97 588.12 360.74 587.34 359.2C586.56 357.66 586.17 355.95 586.17 354.07C586.17 352.19 586.57 350.48 587.37 348.94C588.17 347.4 589.3 346.18 590.76 345.28C592.24 344.36 593.97 343.9 595.95 343.9C598.09 343.9 599.94 344.43 601.5 345.49C603.08 346.53 604.24 347.88 604.98 349.54H602.52C601.92 348.48 601.08 347.64 600 347.02C598.94 346.4 597.65 346.09 596.13 346.09C594.53 346.09 593.15 346.45 591.99 347.17C590.83 347.87 589.94 348.82 589.32 350.02C588.72 351.22 588.42 352.57 588.42 354.07C588.42 355.55 588.72 356.9 589.32 358.12C589.92 359.32 590.79 360.28 591.93 361C593.09 361.7 594.47 362.05 596.07 362.05C597.27 362.05 598.4 361.79 599.46 361.27C600.54 360.75 601.41 360 602.07 359.02C602.75 358.04 603.09 356.86 603.09 355.48H595.83V353.44H605.16V364H603.09V360.49C602.67 361.13 602.13 361.74 601.47 362.32C600.81 362.88 600.01 363.34 599.07 363.7C598.15 364.06 597.09 364.24 595.89 364.24ZM609.11 364V344.14H611.36V364H609.11ZM616.229 364V344.14H630.569V346.3H618.479V353.2H629.249V355.39H618.479V364H616.229ZM638.639 364V346.27H631.709V344.14H647.819V346.27H640.889V364H638.639ZM646.584 364L655.014 344.14H657.834L666.264 364H663.774L661.344 358.24H651.504L649.074 364H646.584ZM652.374 356.17H660.474L656.424 346.48L652.374 356.17ZM675.897 364.24C673.937 364.24 672.347 363.98 671.127 363.46C669.907 362.92 668.987 362.18 668.367 361.24C667.767 360.3 667.417 359.24 667.317 358.06H669.657C669.717 359.02 670.037 359.8 670.617 360.4C671.197 360.98 671.957 361.41 672.897 361.69C673.857 361.97 674.907 362.11 676.047 362.11C677.727 362.11 679.057 361.82 680.037 361.24C681.017 360.64 681.507 359.76 681.507 358.6C681.507 357.9 681.257 357.34 680.757 356.92C680.277 356.48 679.627 356.12 678.807 355.84C678.007 355.56 677.127 355.31 676.167 355.09C675.207 354.85 674.237 354.6 673.257 354.34C672.297 354.08 671.407 353.75 670.587 353.35C669.787 352.95 669.137 352.44 668.637 351.82C668.157 351.18 667.917 350.37 667.917 349.39C667.917 347.77 668.537 346.45 669.777 345.43C671.037 344.41 672.907 343.9 675.387 343.9C677.147 343.9 678.597 344.17 679.737 344.71C680.877 345.23 681.727 345.92 682.287 346.78C682.867 347.64 683.187 348.57 683.247 349.57H680.937C680.817 348.57 680.317 347.73 679.437 347.05C678.557 346.35 677.207 346 675.387 346C674.267 346 673.357 346.11 672.657 346.33C671.957 346.55 671.417 346.84 671.037 347.2C670.677 347.54 670.427 347.9 670.287 348.28C670.167 348.66 670.107 349.02 670.107 349.36C670.107 350.02 670.347 350.56 670.827 350.98C671.327 351.38 671.977 351.72 672.777 352C673.597 352.26 674.497 352.5 675.477 352.72C676.457 352.94 677.427 353.19 678.387 353.47C679.367 353.73 680.257 354.07 681.057 354.49C681.877 354.89 682.527 355.41 683.007 356.05C683.507 356.69 683.757 357.51 683.757 358.51C683.757 360.35 683.057 361.77 681.657 362.77C680.257 363.75 678.337 364.24 675.897 364.24ZM692.864 364V356.14L684.524 344.14H687.254L693.974 353.8L700.694 344.14H703.424L695.114 356.14V364H692.864Z" fill="white"/>
</g>
<defs>
<radialGradient id="paint0_diamond" cx="0" cy="0" r="1" gradientUnits="userSpaceOnUse" gradientTransform="translate(376 171) rotate(58.5305) scale(340.009 505.035)">
<stop offset="0.0155593" stop-color="white"/>
<stop offset="1" stop-color="white" stop-opacity="0"/>
</radialGradient>
<linearGradient id="paint1_linear" x1="455.5" y1="406" x2="166.104" y2="923.687" gradientUnits="userSpaceOnUse">
<stop stop-color="#48C8B8"/>
<stop offset="0.503636" stop-color="#3AAFBF" stop-opacity="0.677083"/>
<stop offset="1" stop-color="#67B0A8" stop-opacity="0"/>
</linearGradient>
<linearGradient id="paint2_linear" x1="1104.99" y1="49.9433" x2="2174.28" y2="510.231" gradientUnits="userSpaceOnUse">
<stop stop-color="#48C8B8"/>
<stop offset="0.169468" stop-color="#47E4EE" stop-opacity="0.677083"/>
<stop offset="1" stop-color="#67B0A8" stop-opacity="0"/>
</linearGradient>
<linearGradient id="paint3_linear" x1="408" y1="338" x2="558" y2="544" gradientUnits="userSpaceOnUse">
<stop stop-color="#8B6C6C"/>
<stop offset="0.291667" stop-color="#665D5D" stop-opacity="0.708333"/>
<stop offset="1" stop-color="#8B8787" stop-opacity="0"/>
</linearGradient>
<linearGradient id="paint4_linear" x1="736.5" y1="291.5" x2="447" y2="444" gradientUnits="userSpaceOnUse">
<stop stop-color="#FCE1E1"/>
<stop offset="0.00305774" stop-color="#171515"/>
<stop offset="0.984596" stop-color="#171515"/>
<stop offset="0.9999" stop-color="#070707" stop-opacity="0.171233"/>
<stop offset="1" stop-color="#0B0A0A" stop-opacity="0"/>
</linearGradient>
<clipPath id="clip0">
<rect width="1920" height="1080" fill="white"/>
</clipPath>
</defs>
</svg>
